<svg width="75" height="76" viewBox="0 0 75 76" fill="none" xmlns="http://www.w3.org/2000/svg">
<path d="M27.2388 75.5L25.7463 63.5C24.9378 63.1875 24.1766 62.8125 23.4627 62.375C22.7488 61.9375 22.0485 61.4688 21.3619 60.9688L10.2612 65.6562L0 47.8438L9.60821 40.5312C9.54602 40.0938 9.51493 39.6725 9.51493 39.2675V36.7363C9.51493 36.3288 9.54602 35.9062 9.60821 35.4688L0 28.1562L10.2612 10.3438L21.3619 15.0312C22.046 14.5312 22.7612 14.0625 23.5075 13.625C24.2537 13.1875 25 12.8125 25.7463 12.5L27.2388 0.5H47.7612L49.2537 12.5C50.0622 12.8125 50.8246 13.1875 51.541 13.625C52.2575 14.0625 52.9565 14.5312 53.6381 15.0312L64.7388 10.3438L75 28.1562L65.3918 35.4688C65.454 35.9062 65.4851 36.3288 65.4851 36.7363V39.2637C65.4851 39.6712 65.4229 40.0938 65.2985 40.5312L74.9067 47.8438L64.6455 65.6562L53.6381 60.9688C52.954 61.4688 52.2388 61.9375 51.4925 62.375C50.7463 62.8125 50 63.1875 49.2537 63.5L47.7612 75.5H27.2388ZM37.6866 51.125C41.2935 51.125 44.3719 49.8438 46.9216 47.2812C49.4714 44.7188 50.7463 41.625 50.7463 38C50.7463 34.375 49.4714 31.2812 46.9216 28.7187C44.3719 26.1562 41.2935 24.875 37.6866 24.875C34.0174 24.875 30.9229 26.1562 28.403 28.7187C25.8831 31.2812 24.6244 34.375 24.6269 38C24.6294 41.625 25.8893 44.7188 28.4067 47.2812C30.9241 49.8438 34.0174 51.125 37.6866 51.125Z" fill="#6B9080"/>
</svg>
