<svg width="75" height="75" viewBox="0 0 75 75" fill="none" xmlns="http://www.w3.org/2000/svg">
<path d="M12.5 59.375V31.25C12.5 30.2604 12.7219 29.3229 13.1656 28.4375C13.6094 27.5521 14.2208 26.8229 15 26.25L33.75 12.1875C34.8437 11.3542 36.0937 10.9375 37.5 10.9375C38.9062 10.9375 40.1562 11.3542 41.25 12.1875L60 26.25C60.7812 26.8229 61.3937 27.5521 61.8375 28.4375C62.2812 29.3229 62.5021 30.2604 62.5 31.25V59.375C62.5 61.0937 61.8875 62.5656 60.6625 63.7906C59.4375 65.0156 57.9667 65.6271 56.25 65.625H46.875C45.9896 65.625 45.2479 65.325 44.65 64.725C44.0521 64.125 43.7521 63.3833 43.75 62.5V46.875C43.75 45.9896 43.45 45.2479 42.85 44.65C42.25 44.0521 41.5083 43.7521 40.625 43.75H34.375C33.4896 43.75 32.7479 44.05 32.15 44.65C31.5521 45.25 31.2521 45.9917 31.25 46.875V62.5C31.25 63.3854 30.95 64.1281 30.35 64.7281C29.75 65.3281 29.0083 65.6271 28.125 65.625H18.75C17.0312 65.625 15.5604 65.0135 14.3375 63.7906C13.1146 62.5677 12.5021 61.0958 12.5 59.375Z" fill="#6B9080"/>
</svg>
