<svg width="75" height="75" viewBox="0 0 75 75" fill="none" xmlns="http://www.w3.org/2000/svg">
<path d="M37.5 30C41.4782 30 45.2936 28.4196 48.1066 25.6066C50.9196 22.7936 52.5 18.9782 52.5 15C52.5 11.0218 50.9196 7.20644 48.1066 4.3934C45.2936 1.58035 41.4782 0 37.5 0C33.5218 0 29.7064 1.58035 26.8934 4.3934C24.0804 7.20644 22.5 11.0218 22.5 15C22.5 18.9782 24.0804 22.7936 26.8934 25.6066C29.7064 28.4196 33.5218 30 37.5 30ZM13.125 41.25C15.6114 41.25 17.996 40.2623 19.7541 38.5041C21.5123 36.746 22.5 34.3614 22.5 31.875C22.5 29.3886 21.5123 27.004 19.7541 25.2459C17.996 23.4877 15.6114 22.5 13.125 22.5C10.6386 22.5 8.25403 23.4877 6.49587 25.2459C4.73772 27.004 3.75 29.3886 3.75 31.875C3.75 34.3614 4.73772 36.746 6.49587 38.5041C8.25403 40.2623 10.6386 41.25 13.125 41.25ZM71.25 31.875C71.25 34.3614 70.2623 36.746 68.5041 38.5041C66.746 40.2623 64.3614 41.25 61.875 41.25C59.3886 41.25 57.004 40.2623 55.2459 38.5041C53.4877 36.746 52.5 34.3614 52.5 31.875C52.5 29.3886 53.4877 27.004 55.2459 25.2459C57.004 23.4877 59.3886 22.5 61.875 22.5C64.3614 22.5 66.746 23.4877 68.5041 25.2459C70.2623 27.004 71.25 29.3886 71.25 31.875ZM37.5 33.75C42.4728 33.75 47.2419 35.7254 50.7583 39.2417C54.2746 42.7581 56.25 47.5272 56.25 52.5V75H18.75V52.5C18.75 47.5272 20.7254 42.7581 24.2417 39.2417C27.7581 35.7254 32.5272 33.75 37.5 33.75ZM11.25 52.5C11.25 49.9012 11.625 47.3925 12.33 45.0225L11.6925 45.075C8.4783 45.4279 5.50749 46.9549 3.34973 49.3632C1.19198 51.7714 -0.000839096 54.8915 4.42866e-07 58.125V75H11.25V52.5ZM75 75V58.125C75.0004 54.7814 73.7247 51.5637 71.4333 49.1287C69.1418 46.6937 66.0075 45.225 62.67 45.0225C63.3713 47.3925 63.75 49.9012 63.75 52.5V75H75Z" fill="#6B9080"/>
</svg>
