<svg width="75" height="75" viewBox="0 0 75 75" fill="none" xmlns="http://www.w3.org/2000/svg">
<path d="M26.25 18.75V26.25H41.25V33.75H33.75C31.7609 33.75 29.8532 34.5402 28.4467 35.9467C27.0402 37.3532 26.25 39.2609 26.25 41.25V56.25H48.75V48.75H33.75V41.25H41.25C43.2391 41.25 45.1468 40.4598 46.5533 39.0533C47.9598 37.6468 48.75 35.7391 48.75 33.75V26.25C48.75 24.2609 47.9598 22.3532 46.5533 20.9467C45.1468 19.5402 43.2391 18.75 41.25 18.75H26.25ZM37.5 0C42.4246 0 47.3009 0.969966 51.8506 2.85452C56.4003 4.73907 60.5343 7.5013 64.0165 10.9835C67.4987 14.4657 70.2609 18.5997 72.1455 23.1494C74.03 27.6991 75 32.5754 75 37.5C75 47.4456 71.0491 56.9839 64.0165 64.0165C56.9839 71.0491 47.4456 75 37.5 75C32.5754 75 27.6991 74.03 23.1494 72.1455C18.5997 70.2609 14.4657 67.4987 10.9835 64.0165C3.95088 56.9839 0 47.4456 0 37.5C0 27.5544 3.95088 18.0161 10.9835 10.9835C18.0161 3.95088 27.5544 0 37.5 0Z" fill="#6B9080"/>
</svg>
