<svg width="86" height="86" viewBox="0 0 86 86" fill="none" xmlns="http://www.w3.org/2000/svg">
<g filter="url(#filter0_d_122_6)">
<path d="M42.6667 0C47.7942 0 52.7117 2.0369 56.3374 5.6626C59.9631 9.2883 62 14.2058 62 19.3333C62 24.4609 59.9631 29.3784 56.3374 33.0041C52.7117 36.6298 47.7942 38.6667 42.6667 38.6667C37.5391 38.6667 32.6216 36.6298 28.9959 33.0041C25.3702 29.3784 23.3333 24.4609 23.3333 19.3333C23.3333 14.2058 25.3702 9.2883 28.9959 5.6626C32.6216 2.0369 37.5391 0 42.6667 0ZM42.6667 48.3333C64.03 48.3333 81.3333 56.985 81.3333 67.6667V77.3333H4V67.6667C4 56.985 21.3033 48.3333 42.6667 48.3333Z" fill="#6B908A"/>
</g>
<defs>
<filter id="filter0_d_122_6" x="0" y="0" width="85.3333" height="85.3335" filterUnits="userSpaceOnUse" color-interpolation-filters="sRGB">
<feFlood flood-opacity="0" result="BackgroundImageFix"/>
<feColorMatrix in="SourceAlpha" type="matrix" values="0 0 0 0 0 0 0 0 0 0 0 0 0 0 0 0 0 0 127 0" result="hardAlpha"/>
<feOffset dy="4"/>
<feGaussianBlur stdDeviation="2"/>
<feComposite in2="hardAlpha" operator="out"/>
<feColorMatrix type="matrix" values="0 0 0 0 0 0 0 0 0 0 0 0 0 0 0 0 0 0 0.25 0"/>
<feBlend mode="normal" in2="BackgroundImageFix" result="effect1_dropShadow_122_6"/>
<feBlend mode="normal" in="SourceGraphic" in2="effect1_dropShadow_122_6" result="shape"/>
</filter>
</defs>
</svg>
