<svg width="101" height="101" viewBox="0 0 101 101" fill="none" xmlns="http://www.w3.org/2000/svg">
<path d="M50.5 84.6C69.3 84.6 84.6 69.3 84.6 50.5C84.6 31.7 69.3 16.4 50.5 16.4C31.7 16.4 16.4 31.7 16.4 50.5C16.4 69.3 31.7 84.6 50.5 84.6ZM50.5 21.2C66.6 21.2 79.8 34.3 79.8 50.5C79.8 66.7 66.6 79.8 50.5 79.8C34.4 79.8 21.2 66.6 21.2 50.5C21.2 34.4 34.4 21.2 50.5 21.2Z" fill="#1DB4BB"/>
<path d="M44.8 65.5C43.5 65.5 42.4 66.6 42.4 67.9C42.4 69.2 43.5 70.3 44.8 70.3H60.6C61.9 70.3 63 69.2 63 67.9C63 66.6 61.9 65.5 60.6 65.5H55.1V44.3C55.1 43 54 41.9 52.7 41.9H44.8C43.5 41.9 42.4 43 42.4 44.3C42.4 45.6 43.5 46.7 44.8 46.7H50.3V65.5H44.8Z" fill="#1DB4BB"/>
<path d="M49.4 37.9C51.5539 37.9 53.3 36.1539 53.3 34C53.3 31.8461 51.5539 30.1 49.4 30.1C47.2461 30.1 45.5 31.8461 45.5 34C45.5 36.1539 47.2461 37.9 49.4 37.9Z" fill="#1DB4BB"/>
</svg>
